<?xml version="1.0" encoding="UTF-8"?>
<svg version="1.1" xmlns="http://www.w3.org/2000/svg" width="128" height="128">
<path d="M0 0 C0.89332031 0.15726563 1.78664063 0.31453125 2.70703125 0.4765625 C5.41104039 1.09383205 6.15685927 1.99658616 8 4 C8.680625 4.309375 9.36125 4.61875 10.0625 4.9375 C12.509677 6.27950029 12.82808323 7.50967686 14 10 C14.680625 10.680625 15.36125 11.36125 16.0625 12.0625 C18 14 18 14 19 17 C19.515625 18.11375 20.03125 19.2275 20.5625 20.375 C23.82733653 29.0919527 22.50494686 37.6757512 19 46 C18.4136018 49.21276343 18.4136018 49.21276343 19 52 C20.92272343 53.92272343 22.6228743 54.84471295 25.125 55.875 C27.72842598 57.43705559 27.99560959 59.18770684 29 62 C29.495 62.639375 29.99 63.27875 30.5 63.9375 C34.6236919 69.60757636 34.75954644 76.2484761 34 83 C32.26208921 89.01223194 29.1452772 93.40658473 25 98 C24.67 98.66 24.34 99.32 24 100 C22.68 100 21.36 100 20 100 C19.67 101.65 19.34 103.3 19 105 C17.94550407 104.97668358 17.94550407 104.97668358 16.8697052 104.95289612 C10.2345252 104.81245609 3.59976161 104.70597374 -3.03657055 104.6373148 C-6.44828531 104.60082777 -9.85876915 104.55137083 -13.26977539 104.47192383 C-17.19402158 104.38109807 -21.11777488 104.34730809 -25.04296875 104.31640625 C-26.26396774 104.28027725 -27.48496674 104.24414825 -28.7429657 104.20692444 C-34.72363578 104.0062167 -34.72363578 104.0062167 -39.87661743 106.53463745 C-41.4678762 108.60642238 -41.4678762 108.60642238 -43 112 C-43.33 112.66 -43.66 113.32 -44 114 C-62.97853504 115.03310574 -62.97853504 115.03310574 -68.125 111.1875 C-70.39665817 109.06763466 -70.99087141 108.02738576 -72 105 C-73.65 105 -75.3 105 -77 105 C-76.99097656 104.3709375 -76.98195313 103.741875 -76.97265625 103.09375 C-77.23572487 95.49907319 -79.70497907 92.19796352 -85 87 C-86.13929983 85.74197048 -87.26536682 84.47177278 -88.375 83.1875 C-89.09816406 82.37345703 -89.09816406 82.37345703 -89.8359375 81.54296875 C-92.82021102 77.58730418 -92.34025196 72.70543569 -92 68 C-91.125 65.1875 -91.125 65.1875 -90 63 C-89.7525 62.319375 -89.505 61.63875 -89.25 60.9375 C-87.00202636 57.45314086 -83.8837349 55.4099495 -79.828125 54.52734375 C-77.89275533 54.28370679 -75.94602231 54.13420843 -74 54 C-74.47196711 51.10077345 -74.94441779 48.23344526 -75.625 45.375 C-76.01703609 42.89210477 -75.78767666 41.36302998 -75 39 C-74.34 39 -73.68 39 -73 39 C-73 35.04 -73 31.08 -73 27 C-73.66 27 -74.32 27 -75 27 C-76.2019586 20.77166905 -75.93161919 17.62870885 -73 12 C-72.34 12 -71.68 12 -71 12 C-70.67 10.68 -70.34 9.36 -70 8 C-68.02 7.67 -66.04 7.34 -64 7 C-62.5393715 9.64738916 -62 10.89448334 -62 14 C-60.68 13.67 -59.36 13.34 -58 13 C-58 12.34 -58 11.68 -58 11 C-56.1128125 11.1546875 -56.1128125 11.1546875 -54.1875 11.3125 C-51.99888305 11.37588433 -51.99888305 11.37588433 -50 11 C-48.13749195 8.78508316 -48.13749195 8.78508316 -47 6 C-43.87623756 2.12222594 -41.85899191 1.61841715 -37 1 C-35.35200456 0.48604888 -33.70642186 -0.03566451 -32.0625 -0.5625 C-21.47310636 -3.50159701 -10.58753047 -2.39355062 0 0 Z M-52 12 C-51 14 -51 14 -51 14 Z M-61 15 C-60 17 -60 17 -60 17 Z M-72 26 C-72 30.62 -72 35.24 -72 40 C-71.67 40 -71.34 40 -71 40 C-71 35.38 -71 30.76 -71 26 C-71.33 26 -71.66 26 -72 26 Z M-60 27 C-60.99 27.495 -60.99 27.495 -62 28 C-62 31.3 -62 34.6 -62 38 C-61.34 38 -60.68 38 -60 38 C-59.7834375 36.329375 -59.7834375 36.329375 -59.5625 34.625 C-59 31 -59 31 -58 29 C-58.66 28.34 -59.32 27.68 -60 27 Z M-54 30 C-54 32.31 -54 34.62 -54 37 C-53.67 37 -53.34 37 -53 37 C-53 34.69 -53 32.38 -53 30 C-53.33 30 -53.66 30 -54 30 Z M-59 31 C-59 33.31 -59 35.62 -59 38 C-57.68 37.67 -56.36 37.34 -55 37 C-55 35.35 -55 33.7 -55 32 C-56.32 31.67 -57.64 31.34 -59 31 Z M-55 37 C-54 40 -54 40 -54 40 Z M-62 39 C-62 39.33 -62 39.66 -62 40 C-60.02 40 -58.04 40 -56 40 C-56 39.67 -56 39.34 -56 39 C-57.98 39 -59.96 39 -62 39 Z M-72 49 C-72 50.65 -72 52.3 -72 54 C-71.67 54 -71.34 54 -71 54 C-71 52.35 -71 50.7 -71 49 C-71.33 49 -71.66 49 -72 49 Z " fill="#386D93" transform="translate(93,8)"/>
<path d="M0 0 C1.02351563 0.00322266 2.04703125 0.00644531 3.1015625 0.00976562 C4.12507813 -0.00634766 5.14859375 -0.02246094 6.203125 -0.0390625 C7.66878906 -0.0400293 7.66878906 -0.0400293 9.1640625 -0.04101562 C10.06253906 -0.04399658 10.96101563 -0.04697754 11.88671875 -0.05004883 C12.98306641 0.13424683 12.98306641 0.13424683 14.1015625 0.32226562 C14.7615625 1.31226563 15.4215625 2.30226562 16.1015625 3.32226562 C18.57423015 2.97781682 18.57423015 2.97781682 21.1015625 2.32226562 C21.4315625 1.66226563 21.7615625 1.00226562 22.1015625 0.32226562 C23.0915625 0.32226562 24.0815625 0.32226562 25.1015625 0.32226562 C25.1015625 1.31226563 25.1015625 2.30226562 25.1015625 3.32226562 C27.0815625 3.32226562 29.0615625 3.32226562 31.1015625 3.32226562 C31.4315625 2.33226562 31.7615625 1.34226563 32.1015625 0.32226562 C33.0915625 0.32226562 34.0815625 0.32226562 35.1015625 0.32226562 C36.0915625 1.80726562 36.0915625 1.80726562 37.1015625 3.32226562 C39.57423015 2.97781682 39.57423015 2.97781682 42.1015625 2.32226562 C42.4315625 1.66226563 42.7615625 1.00226562 43.1015625 0.32226562 C45.0390625 0.69726562 45.0390625 0.69726562 47.1015625 1.32226562 C47.5965625 2.31226563 47.5965625 2.31226563 48.1015625 3.32226562 C50.57423015 2.97781682 50.57423015 2.97781682 53.1015625 2.32226562 C53.4315625 1.66226563 53.7615625 1.00226562 54.1015625 0.32226562 C55.0915625 0.32226562 56.0815625 0.32226562 57.1015625 0.32226562 C57.1015625 5.27226563 57.1015625 10.22226563 57.1015625 15.32226562 C56.1115625 15.32226562 55.1215625 15.32226562 54.1015625 15.32226562 C53.6065625 14.82726562 53.6065625 14.82726562 53.1015625 14.32226562 C53.5965625 18.77726562 53.5965625 18.77726562 54.1015625 23.32226562 C55.0915625 23.32226562 56.0815625 23.32226562 57.1015625 23.32226562 C57.1015625 28.93226562 57.1015625 34.54226562 57.1015625 40.32226562 C59.60807292 40.22460938 62.11458333 40.12695312 64.62109375 40.02929688 C67.1015625 40.32226562 67.1015625 40.32226562 70.1015625 43.32226562 C70.1015625 46.29226562 70.1015625 49.26226562 70.1015625 52.32226562 C42.8765625 52.81726563 42.8765625 52.81726563 15.1015625 53.32226562 C14.7715625 54.97226563 14.4415625 56.62226562 14.1015625 58.32226562 C12.1015625 61.00976562 12.1015625 61.00976562 10.1015625 63.32226562 C9.7715625 63.98226562 9.4415625 64.64226562 9.1015625 65.32226562 C-9.87697254 66.35537136 -9.87697254 66.35537136 -15.0234375 62.50976562 C-17.29509567 60.38990028 -17.88930891 59.34965139 -18.8984375 56.32226562 C-20.5484375 56.32226562 -22.1984375 56.32226562 -23.8984375 56.32226562 C-23.88941406 55.69320312 -23.88039063 55.06414062 -23.87109375 54.41601562 C-24.13416237 46.82133882 -26.60341657 43.52022915 -31.8984375 38.32226562 C-33.03773733 37.06423611 -34.16380432 35.79403841 -35.2734375 34.50976562 C-35.99660156 33.69572266 -35.99660156 33.69572266 -36.734375 32.86523438 C-39.71864852 28.90956981 -39.23868946 24.02770132 -38.8984375 19.32226562 C-38.0234375 16.50976562 -38.0234375 16.50976562 -36.8984375 14.32226562 C-36.6509375 13.64164063 -36.4034375 12.96101563 -36.1484375 12.25976562 C-34.24090534 9.30309078 -32.12558046 7.59967638 -28.8984375 6.32226562 C-24.9036085 5.70571676 -20.93617086 5.45293661 -16.8984375 5.32226562 C-16.81752779 6.94645307 -16.75928755 8.57178307 -16.7109375 10.19726562 C-16.65873047 11.55464844 -16.65873047 11.55464844 -16.60546875 12.93945312 C-16.70214844 13.72578125 -16.79882812 14.51210937 -16.8984375 15.32226562 C-17.8884375 15.98226562 -18.8784375 16.64226562 -19.8984375 17.32226562 C-18.9084375 17.32226562 -17.9184375 17.32226562 -16.8984375 17.32226562 C-16.8984375 24.58226563 -16.8984375 31.84226563 -16.8984375 39.32226562 C-14.9184375 39.65226562 -12.9384375 39.98226562 -10.8984375 40.32226562 C-10.90629272 39.28839722 -10.90629272 39.28839722 -10.91430664 38.23364258 C-11.10956617 8.64070106 -11.10956617 8.64070106 -9.8984375 2.32226562 C-6.90472247 -0.67144941 -4.09349521 0.02970214 0 0 Z " fill="#5A4E8C" transform="translate(39.8984375,56.677734375)"/>
<path d="M0 0 C0.89332031 0.15726563 1.78664062 0.31453125 2.70703125 0.4765625 C5.41104039 1.09383205 6.15685927 1.99658616 8 4 C9.0209375 4.4640625 9.0209375 4.4640625 10.0625 4.9375 C12.509677 6.27950029 12.82808323 7.50967686 14 10 C14.680625 10.680625 15.36125 11.36125 16.0625 12.0625 C18 14 18 14 19 17 C19.515625 18.11375 20.03125 19.2275 20.5625 20.375 C23.82733653 29.0919527 22.50494686 37.6757512 19 46 C18.4136018 49.21276343 18.4136018 49.21276343 19 52 C20.92272343 53.92272343 22.6228743 54.84471295 25.125 55.875 C27.72842598 57.43705559 27.99560959 59.18770684 29 62 C29.495 62.639375 29.99 63.27875 30.5 63.9375 C34.6236919 69.60757636 34.75954644 76.2484761 34 83 C32.26208921 89.01223194 29.1452772 93.40658473 25 98 C24.67 98.66 24.34 99.32 24 100 C22.35 100 20.7 100 19 100 C18.92652344 99.06027344 18.92652344 99.06027344 18.8515625 98.1015625 C18.77679688 97.28429687 18.70203125 96.46703125 18.625 95.625 C18.55539063 94.81289062 18.48578125 94.00078125 18.4140625 93.1640625 C18.17107412 90.79665809 18.17107412 90.79665809 16 89 C14.02 88.505 14.02 88.505 12 88 C12 82.72 12 77.44 12 72 C13.32 71.67 14.64 71.34 16 71 C16 69.35 16 67.7 16 66 C14.02 65.01 14.02 65.01 12 64 C12 59.05 12 54.1 12 49 C13.32 48.34 14.64 47.68 16 47 C16 45.35 16 43.7 16 42 C14.02 41.505 14.02 41.505 12 41 C12 35.72 12 30.44 12 25 C13.32 24.67 14.64 24.34 16 24 C16 22.35 16 20.7 16 19 C15.360625 18.79375 14.72125 18.5875 14.0625 18.375 C12 17 12 17 11.25 13.875 C11.1675 12.92625 11.085 11.9775 11 11 C9.35 11 7.7 11 6 11 C5.34 12.98 4.68 14.96 4 17 C-6.89 17 -17.78 17 -29 17 C-29.33 16.01 -29.66 15.02 -30 14 C-32.91634129 13.7497843 -32.91634129 13.7497843 -36 14 C-36.66 14.99 -37.32 15.98 -38 17 C-38.99 17 -39.98 17 -41 17 C-41.33 16.01 -41.66 15.02 -42 14 C-44.47266765 14.34444881 -44.47266765 14.34444881 -47 15 C-47.33 15.66 -47.66 16.32 -48 17 C-48.99 17 -49.98 17 -51 17 C-52 14 -52 14 -51.14453125 12.09765625 C-44.79313361 2.39361469 -44.79313361 2.39361469 -40.4375 1.4375 C-38.7359375 1.2209375 -38.7359375 1.2209375 -37 1 C-35.35200456 0.48604888 -33.70642186 -0.03566451 -32.0625 -0.5625 C-21.47310636 -3.50159701 -10.58753047 -2.39355062 0 0 Z " fill="#EBEBFC" transform="translate(93,8)"/>
<path d="M0 0 C6.22962829 -0.07400862 12.45900224 -0.12853486 18.68896484 -0.16479492 C20.80945288 -0.17990645 22.92990954 -0.2003964 25.05029297 -0.22631836 C28.09350311 -0.26259786 31.13630103 -0.27970242 34.1796875 -0.29296875 C35.13181122 -0.30845261 36.08393494 -0.32393646 37.06491089 -0.33988953 C38.38605392 -0.34022942 38.38605392 -0.34022942 39.73388672 -0.34057617 C40.51110077 -0.34723801 41.28831482 -0.35389984 42.08908081 -0.36076355 C42.71968414 -0.24171158 43.35028748 -0.12265961 44 0 C44.66 0.99 45.32 1.98 46 3 C48.58380177 3.25030977 48.58380177 3.25030977 51 3 C51.33 2.01 51.66 1.02 52 0 C52.99 0 53.98 0 55 0 C55.66 0.99 56.32 1.98 57 3 C59.58380177 3.25030977 59.58380177 3.25030977 62 3 C62.33 2.01 62.66 1.02 63 0 C63.99 0 64.98 0 66 0 C66 5.28 66 10.56 66 16 C44.22 16 22.44 16 0 16 C0 10.72 0 5.44 0 0 Z " fill="#EEEEFC" transform="translate(31,80)"/>
<path d="M0 0 C1.21879852 0.00607269 1.21879852 0.00607269 2.46221924 0.01226807 C3.31761292 0.00876343 4.17300659 0.00525879 5.05432129 0.00164795 C7.89088988 -0.00717764 10.72721047 -0.00131732 13.56378174 0.00543213 C15.52911426 0.00408572 17.49444646 0.00214538 19.45977783 -0.00036621 C23.58236863 -0.0033186 27.70487286 0.00098385 31.82745361 0.01031494 C37.12064503 0.02170953 42.41363365 0.01515067 47.70681763 0.00317001 C51.76618995 -0.0040455 55.82551394 -0.00176208 59.8848877 0.0034256 C61.83699568 0.00476295 63.78910802 0.0031114 65.74121094 -0.00153351 C68.46604089 -0.00659367 71.1905391 0.00110425 73.91534424 0.01226807 C74.72787659 0.0082196 75.54040894 0.00417114 76.37756348 0 C81.96025361 0.042529 81.96025361 0.042529 84.18878174 2.27105713 C84.18878174 4.91105713 84.18878174 7.55105713 84.18878174 10.27105713 C53.82878174 10.27105713 23.46878174 10.27105713 -7.81121826 10.27105713 C-7.81121826 0.05950595 -7.81121826 0.05950595 0 0 Z " fill="#F8BA40" transform="translate(25.81121826171875,97.72894287109375)"/>
<path d="M0 0 C0.33 1.98 0.66 3.96 1 6 C2.32 5.67 3.64 5.34 5 5 C5 4.34 5 3.68 5 3 C7.31 3 9.62 3 12 3 C12 4.98 12 6.96 12 9 C12.99 9 13.98 9 15 9 C15.66 7.68 16.32 6.36 17 5 C19.475 5.495 19.475 5.495 22 6 C22 6.99 22 7.98 22 9 C25.27773504 8.24849977 25.27773504 8.24849977 27 5 C28.98 5.33 30.96 5.66 33 6 C33 7.32 33 8.64 33 10 C44.22 10 55.44 10 67 10 C67 10.33 67 10.66 67 11 C55.78 11 44.56 11 33 11 C33 12.65 33 14.3 33 16 C44.22 16 55.44 16 67 16 C67 16.33 67 16.66 67 17 C55.78 17 44.56 17 33 17 C32.67 18.32 32.34 19.64 32 21 C30.35 21 28.7 21 27 21 C26.505 19.02 26.505 19.02 26 17 C24.68 17 23.36 17 22 17 C21.67 18.32 21.34 19.64 21 21 C19.35 21 17.7 21 16 21 C15.67 19.68 15.34 18.36 15 17 C14.01 17 13.02 17 12 17 C10.19682779 20.96697886 9.50797009 24.6822542 9 29 C8.67 29 8.34 29 8 29 C8 27.35 8 25.7 8 24 C6.68 23.67 5.36 23.34 4 23 C4 21.02 4 19.04 4 17 C3.01 16.67 2.02 16.34 1 16 C1.99 16 2.98 16 4 16 C4 14.35 4 12.7 4 11 C3.01 11 2.02 11 1 11 C0.67 12.32 0.34 13.64 0 15 C-1.17571451 11.32589215 -1.07366746 7.83070817 -1 4 C-2.32 4 -3.64 4 -5 4 C-5 29.08 -5 54.16 -5 80 C-3.68 80.33 -2.36 80.66 -1 81 C-4.3 81 -7.6 81 -11 81 C-9.02 80.505 -9.02 80.505 -7 80 C-7 74.72 -7 69.44 -7 64 C-7.66 63.67 -8.32 63.34 -9 63 C-8.34 63 -7.68 63 -7 63 C-7 61.35 -7 59.7 -7 58 C-9.475 58.495 -9.475 58.495 -12 59 C-11.34 58.01 -10.68 57.02 -10 56 C-9.01 56 -8.02 56 -7 56 C-7.33 52.7 -7.66 49.4 -8 46 C-8.99 45.67 -9.98 45.34 -11 45 C-12.98834962 40.60470084 -13.19118486 36.77962147 -13 32 C-11.515 31.505 -11.515 31.505 -10 31 C-10 27.04 -10 23.08 -10 19 C-10.66 19 -11.32 19 -12 19 C-13.2019586 12.77166905 -12.93161919 9.62870885 -10 4 C-9.34 4 -8.68 4 -8 4 C-7.814375 3.0409375 -7.814375 3.0409375 -7.625 2.0625 C-7.41875 1.381875 -7.2125 0.70125 -7 0 C-4.3333581 -1.33332095 -2.83319697 -0.67102033 0 0 Z M2 7 C3 9 3 9 3 9 Z M-9 18 C-9 22.62 -9 27.24 -9 32 C-8.67 32 -8.34 32 -8 32 C-8 27.38 -8 22.76 -8 18 C-8.33 18 -8.66 18 -9 18 Z " fill="#272388" transform="translate(30,16)"/>
<path d="M0 0 C1.32 0 2.64 0 4 0 C5.29243536 4.1196377 6.26252625 7.66831683 6 12 C6.99 11.67 7.98 11.34 9 11 C9 11.66 9 12.32 9 13 C8.01 13 7.02 13 6 13 C6 18.28 6 23.56 6 29 C7.65 29.33 9.3 29.66 11 30 C11.125 32.375 11.125 32.375 11 35 C10.01 35.99 10.01 35.99 9 37 C8.01 37 7.02 37 6 37 C6 41.95 6 46.9 6 52 C7.98 52.495 7.98 52.495 10 53 C11 54 11 54 11.0625 56.5625 C11.041875 57.366875 11.02125 58.17125 11 59 C9.35 59.33 7.7 59.66 6 60 C6 65.28 6 70.56 6 76 C7.65 76.33 9.3 76.66 11 77 C13 79 13 79 13 93 C-5.48 93 -23.96 93 -43 93 C-43.33 92.34 -43.66 91.68 -44 91 C-62.315 90.505 -62.315 90.505 -81 90 C-81 89.67 -81 89.34 -81 89 C-50.64 89 -20.28 89 11 89 C11.01512945 80.59866609 11.01512945 80.59866609 8 78 C5.56747339 77.53837573 5.56747339 77.53837573 2.875 77.375 C0.461875 77.189375 0.461875 77.189375 -2 77 C-2 71.39 -2 65.78 -2 60 C-3.32 60.33 -4.64 60.66 -6 61 C-6.06058594 60.30132812 -6.12117188 59.60265625 -6.18359375 58.8828125 C-6.26738281 57.97273438 -6.35117188 57.06265625 -6.4375 56.125 C-6.51871094 55.22007813 -6.59992188 54.31515625 -6.68359375 53.3828125 C-6.86989285 50.98889139 -6.86989285 50.98889139 -8 49 C-6.515 49.495 -6.515 49.495 -5 50 C-5 50.66 -5 51.32 -5 52 C-3.68 52 -2.36 52 -1 52 C-1.00580078 51.14269287 -1.01160156 50.28538574 -1.01757812 49.40209961 C-1.05695997 38.78095689 -0.80921559 28.17855592 -0.5 17.5625 C-0.45163073 15.8483127 -0.40345259 14.13412 -0.35546875 12.41992188 C-0.23917393 8.27988255 -0.12032245 4.13992415 0 0 Z " fill="#366492" transform="translate(99,20)"/>
<path d="M0 0 C1.54204102 -0.0309375 1.54204102 -0.0309375 3.11523438 -0.0625 C4.09685547 -0.06765625 5.07847656 -0.0728125 6.08984375 -0.078125 C7.44710571 -0.09214355 7.44710571 -0.09214355 8.83178711 -0.10644531 C9.56792236 0.01118164 10.30405762 0.12880859 11.0625 0.25 C11.7225 1.24 12.3825 2.23 13.0625 3.25 C15.53516765 2.90555119 15.53516765 2.90555119 18.0625 2.25 C18.3925 1.59 18.7225 0.93 19.0625 0.25 C20.0525 0.25 21.0425 0.25 22.0625 0.25 C22.0625 1.24 22.0625 2.23 22.0625 3.25 C24.0425 3.25 26.0225 3.25 28.0625 3.25 C28.3925 2.26 28.7225 1.27 29.0625 0.25 C30.0525 0.25 31.0425 0.25 32.0625 0.25 C32.7225 1.24 33.3825 2.23 34.0625 3.25 C36.53516765 2.90555119 36.53516765 2.90555119 39.0625 2.25 C39.3925 1.59 39.7225 0.93 40.0625 0.25 C42 0.625 42 0.625 44.0625 1.25 C44.5575 2.24 44.5575 2.24 45.0625 3.25 C47.53516765 2.90555119 47.53516765 2.90555119 50.0625 2.25 C50.3925 1.59 50.7225 0.93 51.0625 0.25 C52.0525 0.25 53.0425 0.25 54.0625 0.25 C54.0625 5.2 54.0625 10.15 54.0625 15.25 C53.0725 15.25 52.0825 15.25 51.0625 15.25 C50.4025 14.26 49.7425 13.27 49.0625 12.25 C46.58983235 12.59444881 46.58983235 12.59444881 44.0625 13.25 C43.7325 13.91 43.4025 14.57 43.0625 15.25 C42.0725 15.25 41.0825 15.25 40.0625 15.25 C40.0625 14.26 40.0625 13.27 40.0625 12.25 C37.14615871 11.9997843 37.14615871 11.9997843 34.0625 12.25 C33.4025 13.24 32.7425 14.23 32.0625 15.25 C30.15158081 15.61076355 30.15158081 15.61076355 27.79638672 15.59057617 C26.91562469 15.59034958 26.03486267 15.59012299 25.12741089 15.58988953 C24.17528717 15.57440567 23.22316345 15.55892181 22.2421875 15.54296875 C21.26839142 15.53872391 20.29459534 15.53447906 19.29129028 15.53010559 C16.17308195 15.51327786 13.05551383 15.47561811 9.9375 15.4375 C7.82683223 15.42245846 5.71615436 15.40876914 3.60546875 15.39648438 C-1.57574023 15.36336109 -6.75657439 15.31312151 -11.9375 15.25 C-11.96435412 12.93756208 -11.98382841 10.6250373 -12 8.3125 C-12.01160156 7.02472656 -12.02320312 5.73695312 -12.03515625 4.41015625 C-11.83204677 -2.16246648 -5.28181424 0.02639258 0 0 Z " fill="#ECECFC" transform="translate(42.9375,56.75)"/>
<path d="M0 0 C0.99 0 1.98 0 3 0 C3.33 0.99 3.66 1.98 4 3 C5.65 3 7.3 3 9 3 C9.33 2.01 9.66 1.02 10 0 C11.32 0 12.64 0 14 0 C14.33 0.99 14.66 1.98 15 3 C16.65 3 18.3 3 20 3 C20.33 2.01 20.66 1.02 21 0 C32.22 0 43.44 0 55 0 C55 5.28 55 10.56 55 16 C54.01 16 53.02 16 52 16 C51.505 14.515 51.505 14.515 51 13 C48.58380177 12.74969023 48.58380177 12.74969023 46 13 C45.34 13.99 44.68 14.98 44 16 C43.01 16 42.02 16 41 16 C40.505 14.515 40.505 14.515 40 13 C38.35 13 36.7 13 35 13 C34.67 15.97 34.34 18.94 34 22 C33.01 22 32.02 22 31 22 C31.04125 21.2575 31.0825 20.515 31.125 19.75 C30.99601866 16.91241048 30.42948778 15.41226062 29 13 C27.35 13 25.7 13 24 13 C22.14223235 16.13498292 21.79859524 18.37471432 22 22 C21.01 22 20.02 22 19 22 C18.67 19.03 18.34 16.06 18 13 C16.35 13 14.7 13 13 13 C12.67 13.99 12.34 14.98 12 16 C7.05 16 2.1 16 -3 16 C-2.25 3.375 -2.25 3.375 0 0 Z " fill="#E4E4F7" transform="translate(42,33)"/>
<path d="M0 0 C0.08090971 1.62418745 0.13914995 3.24951745 0.1875 4.875 C0.23970703 6.23238281 0.23970703 6.23238281 0.29296875 7.6171875 C0.19628906 8.40351562 0.09960938 9.18984375 0 10 C-0.99 10.66 -1.98 11.32 -3 12 C-2.01 12 -1.02 12 0 12 C0 19.26 0 26.52 0 34 C-1.65 34.66 -3.3 35.32 -5 36 C-6.36078035 38.52372901 -6.36078035 38.52372901 -7 41 C-8.14648604 39.85351396 -9.29199671 38.70604178 -10.43359375 37.5546875 C-11.535538 36.46098722 -12.65443238 35.38423212 -13.78515625 34.3203125 C-18.77904558 29.54908066 -22.09930159 25.60333541 -22.3125 18.4375 C-22.18769746 14.89548517 -21.63895697 12.18686077 -20 9 C-19.7525 8.319375 -19.505 7.63875 -19.25 6.9375 C-17.03587732 3.50560984 -13.9558866 1.45511977 -9.96875 0.52734375 C-6.63225101 0.08538213 -3.3641584 0 0 0 Z " fill="#EDEDFC" transform="translate(23,62)"/>
<path d="M0 0 C0.33 1.98 0.66 3.96 1 6 C2.32 5.67 3.64 5.34 5 5 C5 4.34 5 3.68 5 3 C7.31 3 9.62 3 12 3 C11.67 4.98 11.34 6.96 11 9 C8.525 8.505 8.525 8.505 6 8 C5.67 11.63 5.34 15.26 5 19 C4.67 18.34 4.34 17.68 4 17 C3.01 16.67 2.02 16.34 1 16 C1.99 16 2.98 16 4 16 C4 14.35 4 12.7 4 11 C3.01 11 2.02 11 1 11 C0.67 12.32 0.34 13.64 0 15 C-1.17571451 11.32589215 -1.07366746 7.83070817 -1 4 C-2.32 4 -3.64 4 -5 4 C-5 29.08 -5 54.16 -5 80 C-3.68 80.33 -2.36 80.66 -1 81 C-4.3 81 -7.6 81 -11 81 C-9.02 80.505 -9.02 80.505 -7 80 C-7 74.72 -7 69.44 -7 64 C-7.66 63.67 -8.32 63.34 -9 63 C-8.34 63 -7.68 63 -7 63 C-7 61.35 -7 59.7 -7 58 C-9.475 58.495 -9.475 58.495 -12 59 C-11.34 58.01 -10.68 57.02 -10 56 C-9.01 56 -8.02 56 -7 56 C-7.33 52.7 -7.66 49.4 -8 46 C-8.99 45.67 -9.98 45.34 -11 45 C-12.98834962 40.60470084 -13.19118486 36.77962147 -13 32 C-11.515 31.505 -11.515 31.505 -10 31 C-10 27.04 -10 23.08 -10 19 C-10.66 19 -11.32 19 -12 19 C-13.2019586 12.77166905 -12.93161919 9.62870885 -10 4 C-9.34 4 -8.68 4 -8 4 C-7.814375 3.0409375 -7.814375 3.0409375 -7.625 2.0625 C-7.41875 1.381875 -7.2125 0.70125 -7 0 C-4.3333581 -1.33332095 -2.83319697 -0.67102033 0 0 Z M2 7 C3 9 3 9 3 9 Z M-9 18 C-9 22.62 -9 27.24 -9 32 C-8.67 32 -8.34 32 -8 32 C-8 27.38 -8 22.76 -8 18 C-8.33 18 -8.66 18 -9 18 Z " fill="#312A8D" transform="translate(30,16)"/>
<path d="M0 0 C0.33 0 0.66 0 1 0 C1 4.29 1 8.58 1 13 C15.52 13 30.04 13 45 13 C45.66 11.68 46.32 10.36 47 9 C48.98 9.33 50.96 9.66 53 10 C52.67 14.29 52.34 18.58 52 23 C50.35 23 48.7 23 47 23 C46.505 21.02 46.505 21.02 46 19 C30.82 19 15.64 19 0 19 C-0.80950599 14.14296406 -1.00053025 10.89466273 -0.5625 6.125 C-0.46066406 4.97257812 -0.35882812 3.82015625 -0.25390625 2.6328125 C-0.17011719 1.76398437 -0.08632813 0.89515625 0 0 Z " fill="#464198" transform="translate(30,59)"/>
<path d="M0 0 C11.22 0 22.44 0 34 0 C33.00340029 4.98299854 32.16828477 6.33667074 29 10 C28.67 10.66 28.34 11.32 28 12 C9.02649475 13.03283194 9.02649475 13.03283194 3.875 9.25 C1.43152361 7.02046855 0.54242762 5.25456573 0 2 C0 1.34 0 0.68 0 0 Z " fill="#EEEEFA" transform="translate(21,110)"/>
<path d="M0 0 C2.4375 0.1875 2.4375 0.1875 3.4375 1.1875 C3.47830783 3.18708364 3.48004356 5.18795254 3.4375 7.1875 C4.3965625 7.4040625 4.3965625 7.4040625 5.375 7.625 C7.4375 8.1875 7.4375 8.1875 8.4375 9.1875 C8.47813832 10.85367115 8.480221 12.52138095 8.4375 14.1875 C6.77083333 14.1875 5.10416667 14.1875 3.4375 14.1875 C2.7775 10.2275 2.1175 6.2675 1.4375 2.1875 C0.1175 2.1875 -1.2025 2.1875 -2.5625 2.1875 C-2.5625 13.7375 -2.5625 25.2875 -2.5625 37.1875 C-4.40538788 33.50172423 -4.80951045 32.46627347 -4.7578125 28.640625 C-4.75281738 27.87911133 -4.74782227 27.11759766 -4.74267578 26.33300781 C-4.72446777 25.37749023 -4.70625977 24.42197266 -4.6875 23.4375 C-4.64625 20.385 -4.605 17.3325 -4.5625 14.1875 C-15.7825 14.1875 -27.0025 14.1875 -38.5625 14.1875 C-38.5625 11.5475 -38.5625 8.9075 -38.5625 6.1875 C-27.3425 6.5175 -16.1225 6.8475 -4.5625 7.1875 C-4.5625 5.5375 -4.5625 3.8875 -4.5625 2.1875 C-2.5625 0.1875 -2.5625 0.1875 0 0 Z " fill="#5C59A4" transform="translate(101.5625,17.8125)"/>
<path d="M0 0 C1.2065625 0.0309375 1.2065625 0.0309375 2.4375 0.0625 C2.7675 1.3825 3.0975 2.7025 3.4375 4.0625 C4.4275 4.0625 5.4175 4.0625 6.4375 4.0625 C7.0975 2.7425 7.7575 1.4225 8.4375 0.0625 C10.0875 0.0625 11.7375 0.0625 13.4375 0.0625 C13.7675 1.3825 14.0975 2.7025 14.4375 4.0625 C15.4275 4.0625 16.4175 4.0625 17.4375 4.0625 C20.10565719 11.75307071 19.20307692 19.11705308 18.4375 27.0625 C18.1075 27.0625 17.7775 27.0625 17.4375 27.0625 C17.4375 22.1125 17.4375 17.1625 17.4375 12.0625 C16.4475 12.0625 15.4575 12.0625 14.4375 12.0625 C13.7775 13.3825 13.1175 14.7025 12.4375 16.0625 C10 15.6875 10 15.6875 7.4375 15.0625 C7.1075 14.4025 6.7775 13.7425 6.4375 13.0625 C5.4475 12.7325 4.4575 12.4025 3.4375 12.0625 C2.7775 13.3825 2.1175 14.7025 1.4375 16.0625 C-0.2125 15.7325 -1.8625 15.4025 -3.5625 15.0625 C-3.8925 14.0725 -4.2225 13.0825 -4.5625 12.0625 C-5.5525 12.0625 -6.5425 12.0625 -7.5625 12.0625 C-7.8925 13.3825 -8.2225 14.7025 -8.5625 16.0625 C-9.8825 15.7325 -11.2025 15.4025 -12.5625 15.0625 C-11.5725 15.0625 -10.5825 15.0625 -9.5625 15.0625 C-8.9025 12.0925 -8.2425 9.1225 -7.5625 6.0625 C-7.2325 7.3825 -6.9025 8.7025 -6.5625 10.0625 C-5.5725 10.0625 -4.5825 10.0625 -3.5625 10.0625 C-3.57410156 9.42441406 -3.58570312 8.78632812 -3.59765625 8.12890625 C-3.60667969 7.30261719 -3.61570312 6.47632813 -3.625 5.625 C-3.63660156 4.80128906 -3.64820312 3.97757813 -3.66015625 3.12890625 C-3.51340586 0.02366796 -3.12550237 0.07623177 0 0 Z " fill="#5F589D" transform="translate(79.5625,44.9375)"/>
<path d="M0 0 C0.33 0 0.66 0 1 0 C1 1.65 1 3.3 1 5 C1.99 5.495 1.99 5.495 3 6 C2.34 6 1.68 6 1 6 C1 11.28 1 16.56 1 22 C2.65 22.33 4.3 22.66 6 23 C8 25 8 25 8 39 C-10.48 39 -28.96 39 -48 39 C-48.33 38.34 -48.66 37.68 -49 37 C-67.315 36.505 -67.315 36.505 -86 36 C-86 35.67 -86 35.34 -86 35 C-55.64 35 -25.28 35 6 35 C6.01512945 26.59866609 6.01512945 26.59866609 3 24 C0.56747339 23.53837573 0.56747339 23.53837573 -2.125 23.375 C-3.73375 23.25125 -5.3425 23.1275 -7 23 C-6.67 17.39 -6.34 11.78 -6 6 C-5.67 6 -5.34 6 -5 6 C-5 11.28 -5 16.56 -5 22 C-3.35 22 -1.7 22 0 22 C0 14.74 0 7.48 0 0 Z " fill="#2E2A8E" transform="translate(104,74)"/>
<path d="M0 0 C1.65 0 3.3 0 5 0 C5.1953125 6.0546875 5.1953125 6.0546875 5 8 C4.34 8.66 3.68 9.32 3 10 C2.53993654 12.20250992 2.53993654 12.20250992 2.375 14.625 C2.30023437 15.44226562 2.22546875 16.25953125 2.1484375 17.1015625 C2.09945313 17.72804688 2.05046875 18.35453125 2 19 C2.66 19 3.32 19 4 19 C4 16.69 4 14.38 4 12 C4.33 12 4.66 12 5 12 C5 14.31 5 16.62 5 19 C6.32 18.67 7.64 18.34 9 18 C9 19.32 9 20.64 9 22 C14.28 22.33 19.56 22.66 25 23 C25 24.65 25 26.3 25 28 C17.08 28 9.16 28 1 28 C0.11929471 24.47717886 -0.11668989 21.9376996 -0.09765625 18.359375 C-0.09443359 17.28945313 -0.09121094 16.21953125 -0.08789062 15.1171875 C-0.07951172 14.00601563 -0.07113281 12.89484375 -0.0625 11.75 C-0.05798828 10.62335937 -0.05347656 9.49671875 -0.04882812 8.3359375 C-0.03705397 5.55723783 -0.0206084 2.77864591 0 0 Z M2 20 C2 20.33 2 20.66 2 21 C3.98 21 5.96 21 8 21 C8 20.67 8 20.34 8 20 C6.02 20 4.04 20 2 20 Z " fill="#5E5CA4" transform="translate(29,27)"/>
<path d="M0 0 C1.65 0 3.3 0 5 0 C5.103125 0.639375 5.20625 1.27875 5.3125 1.9375 C5.6528125 2.9584375 5.6528125 2.9584375 6 4 C6.99 4.33 7.98 4.66 9 5 C8.01 5.495 8.01 5.495 7 6 C6.09274566 8.11327425 6.09274566 8.11327425 5.375 10.5625 C5.11460938 11.38878906 4.85421875 12.21507812 4.5859375 13.06640625 C4.39257812 13.70449219 4.19921875 14.34257813 4 15 C2.35 15 0.7 15 -1 15 C-1 14.01 -1 13.02 -1 12 C-1.99 12 -2.98 12 -4 12 C-4.66 13.32 -5.32 14.64 -6 16 C-7.32 15.67 -8.64 15.34 -10 15 C-10 10.71 -10 6.42 -10 2 C-8.68 2 -7.36 2 -6 2 C-5.67 4.64 -5.34 7.28 -5 10 C-4.01 10 -3.02 10 -2 10 C-2 8.35 -2 6.7 -2 5 C-2.66 4.67 -3.32 4.34 -4 4 C-3.01 4 -2.02 4 -1 4 C-0.67 2.68 -0.34 1.36 0 0 Z " fill="#3B3693" transform="translate(66,45)"/>
<path d="M0 0 C14.52 0 29.04 0 44 0 C44 1.32 44 2.64 44 4 C29.48 4 14.96 4 0 4 C0 2.68 0 1.36 0 0 Z " fill="#EDEDED" transform="translate(31,74)"/>
<path d="M0 0 C0.99 0.66 1.98 1.32 3 2 C3 2.99 3 3.98 3 5 C4.32 4.67 5.64 4.34 7 4 C7 3.34 7 2.68 7 2 C9.31 2 11.62 2 14 2 C13.67 3.98 13.34 5.96 13 8 C10.525 7.505 10.525 7.505 8 7 C7.67 10.63 7.34 14.26 7 18 C6.67 17.34 6.34 16.68 6 16 C5.01 15.67 4.02 15.34 3 15 C3.99 15 4.98 15 6 15 C6 13.35 6 11.7 6 10 C5.01 10 4.02 10 3 10 C2.67 11.32 2.34 12.64 2 14 C0.82428549 10.32589215 0.92633254 6.83070817 1 3 C-0.32 3 -1.64 3 -3 3 C-3 28.08 -3 53.16 -3 79 C-1.68 79.33 -0.36 79.66 1 80 C-2.3 80 -5.6 80 -9 80 C-9 79.67 -9 79.34 -9 79 C-7.35 79 -5.7 79 -4 79 C-4.02363113 78.05452805 -4.04726227 77.10905609 -4.0716095 76.13493347 C-4.29081298 67.23305599 -4.48353445 58.33094844 -4.65021229 49.42792797 C-4.73676268 44.85053568 -4.83269619 40.27373836 -4.94995117 35.69702148 C-5.06272686 31.28174496 -5.15101437 26.86660025 -5.22220421 22.45046425 C-5.25371796 20.76414638 -5.29411478 19.07797078 -5.34345436 17.39208031 C-5.41097548 15.03352438 -5.44712744 12.67644122 -5.47583008 10.31713867 C-5.5031572 9.61726837 -5.53048431 8.91739807 -5.55863953 8.19631958 C-5.56330872 6.24601746 -5.56330872 6.24601746 -5 3 C-2.47026062 1.04267883 -2.47026062 1.04267883 0 0 Z M4 6 C5 8 5 8 5 8 Z " fill="#353D90" transform="translate(28,17)"/>
<path d="M0 0 C2.00720923 0.28674418 4.0085944 0.61866701 6 1 C6 2.32 6 3.64 6 5 C17.22 5 28.44 5 40 5 C40 5.33 40 5.66 40 6 C28.78 6 17.56 6 6 6 C6 7.65 6 9.3 6 11 C17.22 11 28.44 11 40 11 C40 11.33 40 11.66 40 12 C28.78 12 17.56 12 6 12 C5.67 13.32 5.34 14.64 5 16 C2.525 15.01 2.525 15.01 0 14 C-0.19393875 11.85473901 -0.37998676 9.70876323 -0.5625 7.5625 C-0.71912109 5.77005859 -0.71912109 5.77005859 -0.87890625 3.94140625 C-0.91886719 2.97074219 -0.95882812 2.00007813 -1 1 C-0.67 0.67 -0.34 0.34 0 0 Z " fill="#2A2588" transform="translate(57,21)"/>
<path d="M0 0 C1.2065625 0.0309375 1.2065625 0.0309375 2.4375 0.0625 C2.540625 0.701875 2.64375 1.34125 2.75 2 C3.0903125 3.0209375 3.0903125 3.0209375 3.4375 4.0625 C4.4275 4.3925 5.4175 4.7225 6.4375 5.0625 C5.4475 5.0625 4.4575 5.0625 3.4375 5.0625 C3.4375 6.7125 3.4375 8.3625 3.4375 10.0625 C4.7575 10.3925 6.0775 10.7225 7.4375 11.0625 C6.1175 11.0625 4.7975 11.0625 3.4375 11.0625 C3.1075 12.3825 2.7775 13.7025 2.4375 15.0625 C0.7875 15.3925 -0.8625 15.7225 -2.5625 16.0625 C-3.2225 14.7425 -3.8825 13.4225 -4.5625 12.0625 C-5.5525 12.0625 -6.5425 12.0625 -7.5625 12.0625 C-7.8925 13.3825 -8.2225 14.7025 -8.5625 16.0625 C-9.8825 15.7325 -11.2025 15.4025 -12.5625 15.0625 C-11.5725 15.0625 -10.5825 15.0625 -9.5625 15.0625 C-8.9025 12.0925 -8.2425 9.1225 -7.5625 6.0625 C-7.2325 7.3825 -6.9025 8.7025 -6.5625 10.0625 C-5.5725 10.0625 -4.5825 10.0625 -3.5625 10.0625 C-3.57410156 9.42441406 -3.58570312 8.78632812 -3.59765625 8.12890625 C-3.60667969 7.30261719 -3.61570312 6.47632813 -3.625 5.625 C-3.63660156 4.80128906 -3.64820312 3.97757813 -3.66015625 3.12890625 C-3.51340586 0.02366796 -3.12550237 0.07623177 0 0 Z " fill="#3D3A95" transform="translate(79.5625,44.9375)"/>
<path d="M0 0 C1.65 0 3.3 0 5 0 C5.33 1.32 5.66 2.64 6 4 C5.67 3.34 5.34 2.68 5 2 C3.68 2 2.36 2 1 2 C1 5.96 1 9.92 1 14 C1.99 14.33 2.98 14.66 4 15 C1.525 14.505 1.525 14.505 -1 14 C-1 13.34 -1 12.68 -1 12 C-8.59 12 -16.18 12 -24 12 C-24.33 16.95 -24.66 21.9 -25 27 C-25.33 27 -25.66 27 -26 27 C-26 20.07 -26 13.14 -26 6 C-25.67 7.32 -25.34 8.64 -25 10 C-17.08 10 -9.16 10 -1 10 C-1 8.35 -1 6.7 -1 5 C-8.59 5 -16.18 5 -24 5 C-24 4.67 -24 4.34 -24 4 C-16.2839811 2.58277204 -8.75649113 3.34352614 -1 4 C-0.67 2.68 -0.34 1.36 0 0 Z " fill="#272087" transform="translate(55,45)"/>
<path d="M0 0 C10.89 0 21.78 0 33 0 C33 1.32 33 2.64 33 4 C22.11 4 11.22 4 0 4 C0 2.68 0 1.36 0 0 Z " fill="#EAEAEC" transform="translate(64,27)"/>
<path d="M0 0 C1.65 0.33 3.3 0.66 5 1 C5.125 3.375 5.125 3.375 5 6 C4.34 6.66 3.68 7.32 3 8 C2.01 8 1.02 8 0 8 C0 12.95 0 17.9 0 23 C1.32 23.33 2.64 23.66 4 24 C5 25 5 25 5.0625 27.5625 C5.041875 28.366875 5.02125 29.17125 5 30 C4.01 30.33 3.02 30.66 2 31 C1.34 30.67 0.68 30.34 0 30 C-0.33 35.61 -0.66 41.22 -1 47 C-1.33 47 -1.66 47 -2 47 C-2.04970314 41.59229854 -2.08586241 36.1847322 -2.10986328 30.77685547 C-2.11987648 28.93991782 -2.13349102 27.10299593 -2.15087891 25.26611328 C-2.17533422 22.61486911 -2.18653013 19.963837 -2.1953125 17.3125 C-2.20563507 16.50071289 -2.21595764 15.68892578 -2.22659302 14.85253906 C-2.2276147 9.57577779 -1.4661764 5.07327474 0 0 Z " fill="#333D8E" transform="translate(105,49)"/>
<path d="M0 0 C0.639375 0.165 1.27875 0.33 1.9375 0.5 C4.04582216 1.24598544 4.04582216 1.24598544 6 0 C6 0.66 6 1.32 6 2 C6.99 2.33 7.98 2.66 9 3 C9 4.98 9 6.96 9 9 C8.01 9 7.02 9 6 9 C5.26010787 11.90624297 4.58349094 14.82150775 3.9375 17.75 C3.76089844 18.54921875 3.58429687 19.3484375 3.40234375 20.171875 C3.26957031 20.77515625 3.13679688 21.3784375 3 22 C2.67 22 2.34 22 2 22 C2 20.35 2 18.7 2 17 C0.68 16.67 -0.64 16.34 -2 16 C-1.85975781 13.52039864 -1.7130815 11.04147598 -1.5625 8.5625 C-1.52318359 7.85544922 -1.48386719 7.14839844 -1.44335938 6.41992188 C-1.11328125 1.11328125 -1.11328125 1.11328125 0 0 Z " fill="#685C93" transform="translate(36,23)"/>
<path d="M0 0 C1.9375 0.375 1.9375 0.375 4 1 C5.34112371 3.68224741 5.37601209 6.07820209 5.625 9.0625 C5.72039062 10.14660156 5.81578125 11.23070313 5.9140625 12.34765625 C5.94242188 13.22292969 5.97078125 14.09820312 6 15 C5 16 5 16 2.5625 16.1875 C0 16 0 16 -2 14 C-2 13.01 -2 12.02 -2 11 C-2.99 11 -3.98 11 -5 11 C-5.125 6.25 -5.125 6.25 -4 4 C-3.34 4 -2.68 4 -2 4 C-1.34 2.68 -0.68 1.36 0 0 Z " fill="#574C8D" transform="translate(88,68)"/>
<path d="M0 0 C0.99 0 1.98 0 3 0 C3.05834421 4.52077862 3.09371252 9.04145953 3.125 13.5625 C3.14175781 14.83931641 3.15851562 16.11613281 3.17578125 17.43164062 C3.20811155 23.65522259 3.23461206 29.14953928 1 35 C-2.31481316 31.68518684 -2.97213772 28.84979946 -3.125 24.1875 C-3.063125 22.6096875 -3.063125 22.6096875 -3 21 C-2.01 20.67 -1.02 20.34 0 20 C0 16.04 0 12.08 0 8 C-0.66 8 -1.32 8 -2 8 C-1.125 1.125 -1.125 1.125 0 0 Z M1 7 C1 11.62 1 16.24 1 21 C1.33 21 1.66 21 2 21 C2 16.38 2 11.76 2 7 C1.67 7 1.34 7 1 7 Z " fill="#373290" transform="translate(20,27)"/>
<path d="M0 0 C0.33 0 0.66 0 1 0 C1 3.63 1 7.26 1 11 C2.65 11 4.3 11 6 11 C6 7.37 6 3.74 6 0 C7.32 0.99 8.64 1.98 10 3 C9.01 3 8.02 3 7 3 C7 4.65 7 6.3 7 8 C7.99 8.33 8.98 8.66 10 9 C9.01 9 8.02 9 7 9 C6.67 10.32 6.34 11.64 6 13 C3.625 13.1875 3.625 13.1875 1 13 C0.34 12.01 -0.32 11.02 -1 10 C-2.96990241 9.52573374 -2.96990241 9.52573374 -5.26611328 9.56762695 C-6.14687531 9.54783279 -7.02763733 9.52803864 -7.93508911 9.50764465 C-8.88721283 9.50125473 -9.83933655 9.49486481 -10.8203125 9.48828125 C-12.28100662 9.46135445 -12.28100662 9.46135445 -13.77120972 9.43388367 C-16.88909542 9.37959368 -20.00682645 9.34582509 -23.125 9.3125 C-25.2356987 9.27934343 -27.34637694 9.24485534 -29.45703125 9.20898438 C-34.63788212 9.12385693 -39.81875257 9.05558664 -45 9 C-45 8.67 -45 8.34 -45 8 C-30.48 7.67 -15.96 7.34 -1 7 C-0.67 4.69 -0.34 2.38 0 0 Z " fill="#292489" transform="translate(76,71)"/>
<path d="M0 0 C7.26 0 14.52 0 22 0 C22 1.32 22 2.64 22 4 C14.74 4 7.48 4 0 4 C0 2.68 0 1.36 0 0 Z " fill="#EBEAEC" transform="translate(31,51)"/>
<path d="M0 0 C1.88343932 3.76687864 2.22057835 5.02958963 2 9 C2.99 8.67 3.98 8.34 5 8 C5 8.66 5 9.32 5 10 C4.01 10 3.02 10 2 10 C2.01047363 10.65597168 2.02094727 11.31194336 2.03173828 11.98779297 C2.07322503 14.95015658 2.09930262 17.91245916 2.125 20.875 C2.15013672 22.42380859 2.15013672 22.42380859 2.17578125 24.00390625 C2.18222656 24.99003906 2.18867187 25.97617187 2.1953125 26.9921875 C2.20578613 27.90339355 2.21625977 28.81459961 2.22705078 29.75341797 C2 32 2 32 0 34 C0 22.78 0 11.56 0 0 Z " fill="#31368D" transform="translate(103,23)"/>
<path d="M0 0 C1.98 0.495 1.98 0.495 4 1 C4.33 4.96 4.66 8.92 5 13 C4.01 13.495 4.01 13.495 3 14 C0.875 13.0625 0.875 13.0625 -1 12 C-1.02687279 10.18757948 -1.04633715 8.37504767 -1.0625 6.5625 C-1.07410156 5.55316406 -1.08570313 4.54382813 -1.09765625 3.50390625 C-1 1 -1 1 0 0 Z " fill="#2865F3" transform="translate(58,23)"/>
<path d="M0 0 C1.65 0 3.3 0 5 0 C5 3.63 5 7.26 5 11 C3.68 11.33 2.36 11.66 1 12 C0 11 0 11 -0.09765625 8.49609375 C-0.08605469 7.48675781 -0.07445313 6.47742187 -0.0625 5.4375 C-0.05347656 4.42558594 -0.04445313 3.41367187 -0.03515625 2.37109375 C-0.02355469 1.58863281 -0.01195313 0.80617187 0 0 Z " fill="#2962ED" transform="translate(66,47)"/>
<path d="M0 0 C0.33 1.32 0.66 2.64 1 4 C8.92 4.33 16.84 4.66 25 5 C25 5.33 25 5.66 25 6 C17.41 6 9.82 6 2 6 C1.67 10.95 1.34 15.9 1 21 C0.67 21 0.34 21 0 21 C0 14.07 0 7.14 0 0 Z " fill="#423F97" transform="translate(29,51)"/>
<path d="M0 0 C0.99 0.33 1.98 0.66 3 1 C3 4.96 3 8.92 3 13 C1.68 12.67 0.36 12.34 -1 12 C-1.02687279 10.18757948 -1.04633715 8.37504767 -1.0625 6.5625 C-1.07410156 5.55316406 -1.08570312 4.54382812 -1.09765625 3.50390625 C-1 1 -1 1 0 0 Z " fill="#EFB543" transform="translate(89,46)"/>
<path d="M0 0 C0.99 0 1.98 0 3 0 C3 3.96 3 7.92 3 12 C1.68 12 0.36 12 -1 12 C-1.02687279 10.18757948 -1.04633715 8.37504767 -1.0625 6.5625 C-1.07410156 5.55316406 -1.08570312 4.54382813 -1.09765625 3.50390625 C-1 1 -1 1 0 0 Z " fill="#F2B841" transform="translate(89,70)"/>
<path d="M0 0 C0.99 0 1.98 0 3 0 C3 3.96 3 7.92 3 12 C1.68 12 0.36 12 -1 12 C-1.02687279 10.18757948 -1.04633715 8.37504767 -1.0625 6.5625 C-1.07410156 5.55316406 -1.08570312 4.54382813 -1.09765625 3.50390625 C-1 1 -1 1 0 0 Z " fill="#F0565B" transform="translate(78,70)"/>
<path d="M0 0 C1.32 0 2.64 0 4 0 C4 3.63 4 7.26 4 11 C2.68 11.33 1.36 11.66 0 12 C0 8.04 0 4.08 0 0 Z " fill="#5CD56C" transform="translate(56,47)"/>
<path d="M0 0 C1.32 0 2.64 0 4 0 C4 3.96 4 7.92 4 12 C2.68 11.67 1.36 11.34 0 11 C0 7.37 0 3.74 0 0 Z " fill="#F0565B" transform="translate(77,47)"/>
<path d="M0 0 C1.32 0.33 2.64 0.66 4 1 C4 4.63 4 8.26 4 12 C2.68 12 1.36 12 0 12 C0 8.04 0 4.08 0 0 Z " fill="#F2B842" transform="translate(36,23)"/>
<path d="M0 0 C1.32 0.33 2.64 0.66 4 1 C4 4.63 4 8.26 4 12 C2.68 12 1.36 12 0 12 C0 8.04 0 4.08 0 0 Z " fill="#F0565B" transform="translate(47,23)"/>
<path d="M0 0 C0.99 0 1.98 0 3 0 C3 7.26 3 14.52 3 22 C2.67 22 2.34 22 2 22 C2 17.05 2 12.1 2 7 C0.68 6.34 -0.64 5.68 -2 5 C-1.34 3.35 -0.68 1.7 0 0 Z " fill="#6B69AB" transform="translate(20,27)"/>
<path d="M0 0 C1.32 0 2.64 0 4 0 C5.05476879 4.95350675 4.95554228 9.37839349 4.5625 14.375 C4.51029297 15.11105469 4.45808594 15.84710938 4.40429688 16.60546875 C4.27582277 18.40410629 4.13879051 20.20212909 4 22 C3.67 22 3.34 22 3 22 C3 16.39 3 10.78 3 5 C2.01 5 1.02 5 0 5 C0 3.35 0 1.7 0 0 Z " fill="#7D7AB4" transform="translate(94,74)"/>
<path d="M0 0 C1.65 0.33 3.3 0.66 5 1 C5.125 3.375 5.125 3.375 5 6 C4.34 6.66 3.68 7.32 3 8 C1.68 8 0.36 8 -1 8 C-0.67 5.36 -0.34 2.72 0 0 Z " fill="#7370AF" transform="translate(105,49)"/>
<path d="M0 0 C0.33 0.66 0.66 1.32 1 2 C1.99 2.33 2.98 2.66 4 3 C4 4.98 4 6.96 4 9 C3.01 9 2.02 9 1 9 C0.67 9.99 0.34 10.98 0 12 C-1 11 -1 11 -1.1328125 9.00390625 C-1.13023438 8.19824219 -1.12765625 7.39257812 -1.125 6.5625 C-1.12757812 5.75941406 -1.13015625 4.95632812 -1.1328125 4.12890625 C-1 2 -1 2 0 0 Z " fill="#7A76B1" transform="translate(41,23)"/>
<path d="M0 0 C4.875 0.875 4.875 0.875 6 2 C6.04063832 3.66617115 6.042721 5.33388095 6 7 C5.01 7.33 4.02 7.66 3 8 C2.34 7.67 1.68 7.34 1 7 C0.59270772 4.67843403 0.25561323 2.3431213 0 0 Z " fill="#7875B2" transform="translate(104,72)"/>
<path d="M0 0 C4.75 0.75 4.75 0.75 7 3 C7.1953125 5.8203125 7.1953125 5.8203125 7.125 9.125 C7.10695313 10.22070312 7.08890625 11.31640625 7.0703125 12.4453125 C7.04710938 13.28835937 7.02390625 14.13140625 7 15 C6.34 15 5.68 15 5 15 C4.97421875 14.25234375 4.9484375 13.5046875 4.921875 12.734375 C4.71313116 6.59307795 4.71313116 6.59307795 1.9375 1.3125 C1.298125 0.879375 0.65875 0.44625 0 0 Z " fill="#464196" transform="translate(105,96)"/>
<path d="M0 0 C0.33 0 0.66 0 1 0 C1 2.97 1 5.94 1 9 C-0.65 9 -2.3 9 -4 9 C-4 7.35 -4 5.7 -4 4 C-3.01 4 -2.02 4 -1 4 C-0.67 2.68 -0.34 1.36 0 0 Z " fill="#7D7AB3" transform="translate(87,46)"/>
<path d="M0 0 C0.66 0 1.32 0 2 0 C2.26252625 4.33168317 1.29243536 7.8803623 0 12 C-2 10 -2 10 -3 7 C-2.07796291 4.63477442 -1.08301035 2.29598193 0 0 Z " fill="#8582B9" transform="translate(21,50)"/>
<path d="M0 0 C2.97 0.495 2.97 0.495 6 1 C5.67 5.29 5.34 9.58 5 14 C4.67 14 4.34 14 4 14 C4 10.04 4 6.08 4 2 C2.02 2.66 0.04 3.32 -2 4 C-1.34 2.68 -0.68 1.36 0 0 Z " fill="#6D458A" transform="translate(77,68)"/>
<path d="M0 0 C1.2065625 0.0309375 1.2065625 0.0309375 2.4375 0.0625 C2.7675 1.3825 3.0975 2.7025 3.4375 4.0625 C3.1075 3.4025 2.7775 2.7425 2.4375 2.0625 C1.1175 2.0625 -0.2025 2.0625 -1.5625 2.0625 C-1.5625 5.6925 -1.5625 9.3225 -1.5625 13.0625 C-1.8925 13.0625 -2.2225 13.0625 -2.5625 13.0625 C-2.75647476 11.08395742 -2.94251321 9.1046352 -3.125 7.125 C-3.22941406 6.02285156 -3.33382812 4.92070313 -3.44140625 3.78515625 C-3.48136719 2.88667969 -3.52132812 1.98820312 -3.5625 1.0625 C-2.5625 0.0625 -2.5625 0.0625 0 0 Z " fill="#3D5985" transform="translate(57.5625,44.9375)"/>
<path d="M0 0 C0 1.65 0 3.3 0 5 C-1.32 5.33 -2.64 5.66 -4 6 C-4.33 4.35 -4.66 2.7 -5 1 C-3 0 -3 0 0 0 Z " fill="#9390BF" transform="translate(23,74)"/>
<path d="M0 0 C1.65 0 3.3 0 5 0 C6.36421031 2.72842061 5.87807211 4.60953318 5.5625 7.625 C5.46066406 8.62789062 5.35882813 9.63078125 5.25390625 10.6640625 C5.17011719 11.43492188 5.08632812 12.20578125 5 13 C4.67 13 4.34 13 4 13 C4 9.37 4 5.74 4 2 C2.68 2 1.36 2 0 2 C-0.33 2.66 -0.66 3.32 -1 4 C-0.67 2.68 -0.34 1.36 0 0 Z " fill="#6B3A7F" transform="translate(77,45)"/>
<path d="M0 0 C0.33 0 0.66 0 1 0 C1 3.63 1 7.26 1 11 C2.65 11 4.3 11 6 11 C5.67 11.66 5.34 12.32 5 13 C3.35 13 1.7 13 0 13 C-0.96661363 9.87819599 -0.98988909 7.47916205 -0.5625 4.25 C-0.46066406 3.45078125 -0.35882813 2.6515625 -0.25390625 1.828125 C-0.17011719 1.22484375 -0.08632813 0.6215625 0 0 Z " fill="#6B3A80" transform="translate(46,24)"/>
<path d="M0 0 C1.32 0 2.64 0 4 0 C5.09658936 3.28976808 4.79953138 4.71303767 4 8 C3.01 8 2.02 8 1 8 C1.020625 7.236875 1.04125 6.47375 1.0625 5.6875 C1.12942841 2.89814214 1.12942841 2.89814214 0 0 Z " fill="#A19FC8" transform="translate(72,47)"/>
<path d="M0 0 C0.33 0.99 0.66 1.98 1 3 C1.66 3 2.32 3 3 3 C3 4.65 3 6.3 3 8 C2.01 8 1.02 8 0 8 C-1.125 2.25 -1.125 2.25 0 0 Z " fill="#9A98C3" transform="translate(61,47)"/>
<path d="M0 0 C1.32 0 2.64 0 4 0 C4 1.65 4 3.3 4 5 C2.68 5 1.36 5 0 5 C0 3.35 0 1.7 0 0 Z " fill="#A8A6CA" transform="translate(52,27)"/>
<path d="M0 0 C2.31 0 4.62 0 7 0 C6.67 1.98 6.34 3.96 6 6 C3.37812506 4.95125002 2.20628639 4.35068687 0.75 1.875 C0.5025 1.25625 0.255 0.6375 0 0 Z " fill="#494293" transform="translate(35,19)"/>
<path d="M0 0 C2.475 0.495 2.475 0.495 5 1 C5 1.99 5 2.98 5 4 C6.32 3.67 7.64 3.34 9 3 C9 3.66 9 4.32 9 5 C7.35 5.33 5.7 5.66 4 6 C3.67 5.01 3.34 4.02 3 3 C1.50014391 1.33289654 1.50014391 1.33289654 0 0 Z " fill="#48439A" transform="translate(47,21)"/>
<path d="M0 0 C0.33 0 0.66 0 1 0 C1 2.64 1 5.28 1 8 C0.01 8 -0.98 8 -2 8 C-2 6.02 -2 4.04 -2 2 C-1.34 2 -0.68 2 0 2 C0 1.34 0 0.68 0 0 Z " fill="#9B99C4" transform="translate(86,70)"/>
<path d="M0 0 C2.75 2.4375 2.75 2.4375 5 5 C3.68 5.33 2.36 5.66 1 6 C0.34 5.01 -0.32 4.02 -1 3 C-1.99 2.34 -2.98 1.68 -4 1 C-2.3125 0.1875 -2.3125 0.1875 0 0 Z " fill="#494497" transform="translate(87,55)"/>
<path d="M0 0 C0.33 0 0.66 0 1 0 C1.33 3.96 1.66 7.92 2 12 C1.01 12.495 1.01 12.495 0 13 C-0.99 12.34 -1.98 11.68 -3 11 C-2.01 11 -1.02 11 0 11 C0 7.37 0 3.74 0 0 Z " fill="#304EC5" transform="translate(61,24)"/>
<path d="M0 0 C4.62 0 9.24 0 14 0 C14 0.33 14 0.66 14 1 C9.38 1 4.76 1 0 1 C0 0.67 0 0.34 0 0 Z " fill="#ECECFE" transform="translate(68,4)"/>
<path d="M0 0 C0.33 0 0.66 0 1 0 C1 4.29 1 8.58 1 13 C0.67 13 0.34 13 0 13 C0 8.71 0 4.42 0 0 Z " fill="#EDEDFE" transform="translate(116,33)"/>
<path d="M0 0 C2.64 0 5.28 0 8 0 C8 0.33 8 0.66 8 1 C5.36 1 2.72 1 0 1 C0 0.67 0 0.34 0 0 Z " fill="#F4F4FE" transform="translate(36,123)"/>
<path d="M0 0 C0.33 0 0.66 0 1 0 C1 2.64 1 5.28 1 8 C0.67 8 0.34 8 0 8 C0 5.36 0 2.72 0 0 Z " fill="#373093" transform="translate(14,103)"/>
<path d="M0 0 C0.33 0 0.66 0 1 0 C1 1.98 1 3.96 1 6 C0.67 6 0.34 6 0 6 C0 4.02 0 2.04 0 0 Z " fill="#D7D6EF" transform="translate(112,54)"/>
<path d="M0 0 C1.65 0 3.3 0 5 0 C5 0.33 5 0.66 5 1 C3.35 1 1.7 1 0 1 C0 0.67 0 0.34 0 0 Z " fill="#ECECFE" transform="translate(82,5)"/>
<path d="M0 0 C1.65 0 3.3 0 5 0 C5 0.33 5 0.66 5 1 C3.35 1 1.7 1 0 1 C0 0.67 0 0.34 0 0 Z " fill="#ECECFE" transform="translate(62,5)"/>
<path d="M0 0 C4 1 4 1 4 1 Z " fill="#F3F3FD" transform="translate(32,122)"/>
<path d="M0 0 C0.99 0.495 0.99 0.495 2 1 C1.34 1.66 0.68 2.32 0 3 C0 2.01 0 1.02 0 0 Z " fill="#8A86C0" transform="translate(113,108)"/>
<path d="M0 0 C1 4 1 4 1 4 Z " fill="#F0F0FE" transform="translate(127,91)"/>
<path d="M0 0 C1 4 1 4 1 4 Z " fill="#322E8E" transform="translate(15,51)"/>
<path d="M0 0 C1 4 1 4 1 4 Z " fill="#332E8E" transform="translate(15,27)"/>
<path d="M0 0 C4 1 4 1 4 1 Z " fill="#ECECFE" transform="translate(87,6)"/>
<path d="M0 0 C3 1 3 1 3 1 Z " fill="#F4F4FE" transform="translate(44,122)"/>
<path d="" fill="#F1F1FE" transform="translate(0,0)"/>
<path d="" fill="#EFEFFE" transform="translate(0,0)"/>
<path d="" fill="#EEEEFD" transform="translate(0,0)"/>
<path d="M0 0 C3 1 3 1 3 1 Z " fill="#EDEDFE" transform="translate(13,62)"/>
<path d="M0 0 C3 1 3 1 3 1 Z " fill="#EEEEFE" transform="translate(16,61)"/>
<path d="" fill="#EDEDFE" transform="translate(0,0)"/>
<path d="" fill="#EDECFE" transform="translate(0,0)"/>
<path d="" fill="#EDECFE" transform="translate(0,0)"/>
<path d="M0 0 C3 1 3 1 3 1 Z " fill="#EBEBFE" transform="translate(56,7)"/>
<path d="M0 0 C3 1 3 1 3 1 Z " fill="#ECECFE" transform="translate(59,6)"/>
<path d="" fill="#F3F3FE" transform="translate(0,0)"/>
<path d="" fill="#C5C5E4" transform="translate(0,0)"/>
<path d="" fill="#F1F1FE" transform="translate(0,0)"/>
<path d="" fill="#F1F1FE" transform="translate(0,0)"/>
<path d="" fill="#F1F1FE" transform="translate(0,0)"/>
<path d="" fill="#EFEFFE" transform="translate(0,0)"/>
<path d="" fill="#EFEFFE" transform="translate(0,0)"/>
<path d="" fill="#EFEFFD" transform="translate(0,0)"/>
<path d="" fill="#EFEFFD" transform="translate(0,0)"/>
<path d="" fill="#EEEDFE" transform="translate(0,0)"/>
<path d="" fill="#EDEDFE" transform="translate(0,0)"/>
<path d="" fill="#332E8E" transform="translate(0,0)"/>
<path d="" fill="#332E8E" transform="translate(0,0)"/>
<path d="" fill="#EDECFE" transform="translate(0,0)"/>
<path d="" fill="#ECECFE" transform="translate(0,0)"/>
<path d="" fill="#332E8E" transform="translate(0,0)"/>
<path d="" fill="#ECEBFE" transform="translate(0,0)"/>
<path d="M0 0 C2 1 2 1 2 1 Z " fill="#332E8E" transform="translate(37,18)"/>
<path d="M0 0 C2 1 2 1 2 1 Z " fill="#ECECFE" transform="translate(52,9)"/>
<path d="M0 0 C2 1 2 1 2 1 Z " fill="#ECECFE" transform="translate(54,8)"/>
<path d="M0 0 C2 1 2 1 2 1 Z " fill="#ECECFE" transform="translate(91,7)"/>
<path d="" fill="#F4F4FE" transform="translate(0,0)"/>
<path d="" fill="#F4F4FE" transform="translate(0,0)"/>
<path d="" fill="#F3F3FE" transform="translate(0,0)"/>
<path d="" fill="#F3F3FE" transform="translate(0,0)"/>
<path d="" fill="#F3F3FE" transform="translate(0,0)"/>
<path d="" fill="#F2F2FE" transform="translate(0,0)"/>
<path d="" fill="#F2F2FE" transform="translate(0,0)"/>
<path d="" fill="#F2F2FE" transform="translate(0,0)"/>
<path d="" fill="#F1F1FE" transform="translate(0,0)"/>
<path d="" fill="#F1F1FE" transform="translate(0,0)"/>
<path d="" fill="#F1F1FE" transform="translate(0,0)"/>
<path d="" fill="#F2F2FE" transform="translate(0,0)"/>
<path d="" fill="#F2F2FE" transform="translate(0,0)"/>
<path d="" fill="#F2F2FE" transform="translate(0,0)"/>
<path d="" fill="#F1F1FE" transform="translate(0,0)"/>
<path d="" fill="#F2F2FE" transform="translate(0,0)"/>
<path d="" fill="#F2F2FE" transform="translate(0,0)"/>
<path d="" fill="#F1F1FE" transform="translate(0,0)"/>
<path d="" fill="#F1F1FE" transform="translate(0,0)"/>
<path d="" fill="#F1F1FE" transform="translate(0,0)"/>
<path d="" fill="#F1F1FE" transform="translate(0,0)"/>
<path d="" fill="#F1F1FE" transform="translate(0,0)"/>
<path d="" fill="#F1F1FE" transform="translate(0,0)"/>
<path d="" fill="#EFEFFE" transform="translate(0,0)"/>
<path d="" fill="#EFEFFE" transform="translate(0,0)"/>
<path d="" fill="#EEEEFE" transform="translate(0,0)"/>
<path d="" fill="#EEEEFE" transform="translate(0,0)"/>
<path d="" fill="#EEEEFE" transform="translate(0,0)"/>
<path d="" fill="#EEEEFE" transform="translate(0,0)"/>
<path d="" fill="#EEEEFE" transform="translate(0,0)"/>
<path d="" fill="#EEEEFE" transform="translate(0,0)"/>
<path d="" fill="#35308F" transform="translate(0,0)"/>
<path d="" fill="#332E8E" transform="translate(0,0)"/>
<path d="" fill="#342F8E" transform="translate(0,0)"/>
<path d="" fill="#332E8E" transform="translate(0,0)"/>
<path d="" fill="#35308F" transform="translate(0,0)"/>
<path d="" fill="#EDECFE" transform="translate(0,0)"/>
<path d="" fill="#ECECFE" transform="translate(0,0)"/>
<path d="" fill="#352F8D" transform="translate(0,0)"/>
<path d="" fill="#342F8D" transform="translate(0,0)"/>
<path d="" fill="#332E8E" transform="translate(0,0)"/>
<path d="" fill="#ECECFE" transform="translate(0,0)"/>
<path d="" fill="#332E8E" transform="translate(0,0)"/>
<path d="" fill="#ECECFE" transform="translate(0,0)"/>
<path d="" fill="#332F8E" transform="translate(0,0)"/>
<path d="" fill="#EAEAFD" transform="translate(0,0)"/>
<path d="" fill="#ECECFE" transform="translate(0,0)"/>
<path d="" fill="#EBEBFE" transform="translate(0,0)"/>
<path d="" fill="#ECECFE" transform="translate(0,0)"/>
<path d="" fill="#ECECFE" transform="translate(0,0)"/>
<path d="" fill="#ECECFE" transform="translate(0,0)"/>
</svg>
